<?xml version="1.0" encoding="UTF-8"?>
<svg xmlns="http://www.w3.org/2000/svg" width="1128" height="191" viewBox="0 0 1128 191"  role="img" aria-label="A trail of code locations connected across a wide top-down city of files"><defs><radialGradient id="glow-«R0»" cx="50%" cy="50%" r="50%"><stop offset="0%" stop-color="#ff6b35" stop-opacity="0.35"></stop><stop offset="100%" stop-color="#ff6b35" stop-opacity="0"></stop></radialGradient></defs><rect x="0" y="0" width="1128" height="191" fill="#dff1f5"></rect><g><rect x="42.57" y="3.8200000000000003" width="40.11" height="40.11" fill="#ff6b358c" stroke="#0c374114" stroke-width="0.5" rx="2"></rect><rect x="90.32" y="3.8200000000000003" width="40.11" height="40.11" fill="#ff6b355c" stroke="#0c374114" stroke-width="0.5" rx="2"></rect><rect x="138.07" y="3.8200000000000003" width="40.11" height="40.11" fill="#ff6b358c" stroke="#0c374114" stroke-width="0.5" rx="2"></rect><rect x="185.82" y="3.8200000000000003" width="40.11" height="40.11" fill="#0c374173" stroke="#0c374114" stroke-width="0.5" rx="2"></rect><rect x="233.57" y="3.8200000000000003" width="40.11" height="40.11" fill="#ff6b355c" stroke="#0c374114" stroke-width="0.5" rx="2"></rect><rect x="376.82" y="3.8200000000000003" width="40.11" height="40.11" fill="#0c374173" stroke="#0c374114" stroke-width="0.5" rx="2"></rect><rect x="424.57" y="3.8200000000000003" width="40.11" height="40.11" fill="#ff6b358c" stroke="#0c374114" stroke-width="0.5" rx="2"></rect><rect x="472.32" y="3.8200000000000003" width="40.11" height="40.11" fill="#0c37414d" stroke="#0c374114" stroke-width="0.5" rx="2"></rect><rect x="520.07" y="3.8200000000000003" width="40.11" height="40.11" fill="#0c374173" stroke="#0c374114" stroke-width="0.5" rx="2"></rect><rect x="567.82" y="3.8200000000000003" width="40.11" height="40.11" fill="#ff6b358c" stroke="#0c374114" stroke-width="0.5" rx="2"></rect><rect x="663.32" y="3.8200000000000003" width="40.11" height="40.11" fill="#ff6b355c" stroke="#0c374114" stroke-width="0.5" rx="2"></rect><rect x="711.07" y="3.8200000000000003" width="40.11" height="40.11" fill="#0c374173" stroke="#0c374114" stroke-width="0.5" rx="2"></rect><rect x="758.82" y="3.8200000000000003" width="40.11" height="40.11" fill="#0c37412e" stroke="#0c374114" stroke-width="0.5" rx="2"></rect><rect x="806.57" y="3.8200000000000003" width="40.11" height="40.11" fill="#0c374173" stroke="#0c374114" stroke-width="0.5" rx="2"></rect><rect x="854.32" y="3.8200000000000003" width="40.11" height="40.11" fill="#0c37412e" stroke="#0c374114" stroke-width="0.5" rx="2"></rect><rect x="902.07" y="3.8200000000000003" width="40.11" height="40.11" fill="#ff6b358c" stroke="#0c374114" stroke-width="0.5" rx="2"></rect><rect x="949.82" y="3.8200000000000003" width="40.11" height="40.11" fill="#0c374173" stroke="#0c374114" stroke-width="0.5" rx="2"></rect><rect x="997.57" y="3.8200000000000003" width="40.11" height="40.11" fill="#0c37414d" stroke="#0c374114" stroke-width="0.5" rx="2"></rect><rect x="1045.32" y="3.8200000000000003" width="40.11" height="40.11" fill="#ff6b358c" stroke="#0c374114" stroke-width="0.5" rx="2"></rect><rect x="-5.18" y="51.57" width="40.11" height="40.11" fill="#0c37412e" stroke="#0c374114" stroke-width="0.5" rx="2"></rect><rect x="42.57" y="51.57" width="40.11" height="40.11" fill="#0c374173" stroke="#0c374114" stroke-width="0.5" rx="2"></rect><rect x="90.32" y="51.57" width="40.11" height="40.11" fill="#0c374173" stroke="#0c374114" stroke-width="0.5" rx="2"></rect><rect x="185.82" y="51.57" width="40.11" height="40.11" fill="#0c374173" stroke="#0c374114" stroke-width="0.5" rx="2"></rect><rect x="233.57" y="51.57" width="40.11" height="40.11" fill="#0c374173" stroke="#0c374114" stroke-width="0.5" rx="2"></rect><rect x="281.32" y="51.57" width="40.11" height="40.11" fill="#0c37412e" stroke="#0c374114" stroke-width="0.5" rx="2"></rect><rect x="329.07" y="51.57" width="40.11" height="40.11" fill="#0c374173" stroke="#0c374114" stroke-width="0.5" rx="2"></rect><rect x="376.82" y="51.57" width="40.11" height="40.11" fill="#0c37412e" stroke="#0c374114" stroke-width="0.5" rx="2"></rect><rect x="424.57" y="51.57" width="40.11" height="40.11" fill="#0c37412e" stroke="#0c374114" stroke-width="0.5" rx="2"></rect><rect x="472.32" y="51.57" width="40.11" height="40.11" fill="#ff6b355c" stroke="#0c374114" stroke-width="0.5" rx="2"></rect><rect x="567.82" y="51.57" width="40.11" height="40.11" fill="#0c37414d" stroke="#0c374114" stroke-width="0.5" rx="2"></rect><rect x="615.57" y="51.57" width="40.11" height="40.11" fill="#0c37414d" stroke="#0c374114" stroke-width="0.5" rx="2"></rect><rect x="663.32" y="51.57" width="40.11" height="40.11" fill="#0c37412e" stroke="#0c374114" stroke-width="0.5" rx="2"></rect><rect x="711.07" y="51.57" width="40.11" height="40.11" fill="#0c37414d" stroke="#0c374114" stroke-width="0.5" rx="2"></rect><rect x="806.57" y="51.57" width="40.11" height="40.11" fill="#0c374173" stroke="#0c374114" stroke-width="0.5" rx="2"></rect><rect x="854.32" y="51.57" width="40.11" height="40.11" fill="#0c374173" stroke="#0c374114" stroke-width="0.5" rx="2"></rect><rect x="902.07" y="51.57" width="40.11" height="40.11" fill="#0c37412e" stroke="#0c374114" stroke-width="0.5" rx="2"></rect><rect x="949.82" y="51.57" width="40.11" height="40.11" fill="#0c374173" stroke="#0c374114" stroke-width="0.5" rx="2"></rect><rect x="997.57" y="51.57" width="40.11" height="40.11" fill="#0c37412e" stroke="#0c374114" stroke-width="0.5" rx="2"></rect><rect x="1045.32" y="51.57" width="40.11" height="40.11" fill="#0c37412e" stroke="#0c374114" stroke-width="0.5" rx="2"></rect><rect x="1093.07" y="51.57" width="40.11" height="40.11" fill="#ff6b358c" stroke="#0c374114" stroke-width="0.5" rx="2"></rect><rect x="-5.18" y="99.32" width="40.11" height="40.11" fill="#ff6b358c" stroke="#0c374114" stroke-width="0.5" rx="2"></rect><rect x="90.32" y="99.32" width="40.11" height="40.11" fill="#0c37414d" stroke="#0c374114" stroke-width="0.5" rx="2"></rect><rect x="138.07" y="99.32" width="40.11" height="40.11" fill="#0c374173" stroke="#0c374114" stroke-width="0.5" rx="2"></rect><rect x="185.82" y="99.32" width="40.11" height="40.11" fill="#0c37412e" stroke="#0c374114" stroke-width="0.5" rx="2"></rect><rect x="233.57" y="99.32" width="40.11" height="40.11" fill="#0c37414d" stroke="#0c374114" stroke-width="0.5" rx="2"></rect><rect x="281.32" y="99.32" width="40.11" height="40.11" fill="#ff6b358c" stroke="#0c374114" stroke-width="0.5" rx="2"></rect><rect x="329.07" y="99.32" width="40.11" height="40.11" fill="#0c37414d" stroke="#0c374114" stroke-width="0.5" rx="2"></rect><rect x="376.82" y="99.32" width="40.11" height="40.11" fill="#0c374173" stroke="#0c374114" stroke-width="0.5" rx="2"></rect><rect x="424.57" y="99.32" width="40.11" height="40.11" fill="#ff6b358c" stroke="#0c374114" stroke-width="0.5" rx="2"></rect><rect x="472.32" y="99.32" width="40.11" height="40.11" fill="#0c374173" stroke="#0c374114" stroke-width="0.5" rx="2"></rect><rect x="520.07" y="99.32" width="40.11" height="40.11" fill="#0c37412e" stroke="#0c374114" stroke-width="0.5" rx="2"></rect><rect x="567.82" y="99.32" width="40.11" height="40.11" fill="#ff6b358c" stroke="#0c374114" stroke-width="0.5" rx="2"></rect><rect x="615.57" y="99.32" width="40.11" height="40.11" fill="#ff6b355c" stroke="#0c374114" stroke-width="0.5" rx="2"></rect><rect x="663.32" y="99.32" width="40.11" height="40.11" fill="#ff6b355c" stroke="#0c374114" stroke-width="0.5" rx="2"></rect><rect x="711.07" y="99.32" width="40.11" height="40.11" fill="#ff6b358c" stroke="#0c374114" stroke-width="0.5" rx="2"></rect><rect x="758.82" y="99.32" width="40.11" height="40.11" fill="#0c37412e" stroke="#0c374114" stroke-width="0.5" rx="2"></rect><rect x="806.57" y="99.32" width="40.11" height="40.11" fill="#ff6b358c" stroke="#0c374114" stroke-width="0.5" rx="2"></rect><rect x="854.32" y="99.32" width="40.11" height="40.11" fill="#0c37412e" stroke="#0c374114" stroke-width="0.5" rx="2"></rect><rect x="949.82" y="99.32" width="40.11" height="40.11" fill="#0c37414d" stroke="#0c374114" stroke-width="0.5" rx="2"></rect><rect x="997.57" y="99.32" width="40.11" height="40.11" fill="#0c37414d" stroke="#0c374114" stroke-width="0.5" rx="2"></rect><rect x="1045.32" y="99.32" width="40.11" height="40.11" fill="#0c37414d" stroke="#0c374114" stroke-width="0.5" rx="2"></rect><rect x="1093.07" y="99.32" width="40.11" height="40.11" fill="#0c374173" stroke="#0c374114" stroke-width="0.5" rx="2"></rect><rect x="-5.18" y="147.07" width="40.11" height="40.11" fill="#ff6b355c" stroke="#0c374114" stroke-width="0.5" rx="2"></rect><rect x="42.57" y="147.07" width="40.11" height="40.11" fill="#ff6b355c" stroke="#0c374114" stroke-width="0.5" rx="2"></rect><rect x="90.32" y="147.07" width="40.11" height="40.11" fill="#ff6b358c" stroke="#0c374114" stroke-width="0.5" rx="2"></rect><rect x="138.07" y="147.07" width="40.11" height="40.11" fill="#0c374173" stroke="#0c374114" stroke-width="0.5" rx="2"></rect><rect x="185.82" y="147.07" width="40.11" height="40.11" fill="#0c37414d" stroke="#0c374114" stroke-width="0.5" rx="2"></rect><rect x="233.57" y="147.07" width="40.11" height="40.11" fill="#0c37412e" stroke="#0c374114" stroke-width="0.5" rx="2"></rect><rect x="281.32" y="147.07" width="40.11" height="40.11" fill="#0c37412e" stroke="#0c374114" stroke-width="0.5" rx="2"></rect><rect x="329.07" y="147.07" width="40.11" height="40.11" fill="#ff6b358c" stroke="#0c374114" stroke-width="0.5" rx="2"></rect><rect x="424.57" y="147.07" width="40.11" height="40.11" fill="#0c37414d" stroke="#0c374114" stroke-width="0.5" rx="2"></rect><rect x="472.32" y="147.07" width="40.11" height="40.11" fill="#0c37414d" stroke="#0c374114" stroke-width="0.5" rx="2"></rect><rect x="520.07" y="147.07" width="40.11" height="40.11" fill="#ff6b358c" stroke="#0c374114" stroke-width="0.5" rx="2"></rect><rect x="567.82" y="147.07" width="40.11" height="40.11" fill="#0c37414d" stroke="#0c374114" stroke-width="0.5" rx="2"></rect><rect x="615.57" y="147.07" width="40.11" height="40.11" fill="#0c37414d" stroke="#0c374114" stroke-width="0.5" rx="2"></rect><rect x="663.32" y="147.07" width="40.11" height="40.11" fill="#0c374173" stroke="#0c374114" stroke-width="0.5" rx="2"></rect><rect x="758.82" y="147.07" width="40.11" height="40.11" fill="#0c374173" stroke="#0c374114" stroke-width="0.5" rx="2"></rect><rect x="806.57" y="147.07" width="40.11" height="40.11" fill="#ff6b358c" stroke="#0c374114" stroke-width="0.5" rx="2"></rect><rect x="854.32" y="147.07" width="40.11" height="40.11" fill="#0c37412e" stroke="#0c374114" stroke-width="0.5" rx="2"></rect><rect x="902.07" y="147.07" width="40.11" height="40.11" fill="#0c374173" stroke="#0c374114" stroke-width="0.5" rx="2"></rect><rect x="949.82" y="147.07" width="40.11" height="40.11" fill="#ff6b355c" stroke="#0c374114" stroke-width="0.5" rx="2"></rect><rect x="997.57" y="147.07" width="40.11" height="40.11" fill="#0c37414d" stroke="#0c374114" stroke-width="0.5" rx="2"></rect><rect x="1045.32" y="147.07" width="40.11" height="40.11" fill="#0c37412e" stroke="#0c374114" stroke-width="0.5" rx="2"></rect><rect x="1093.07" y="147.07" width="40.11" height="40.11" fill="#0c374173" stroke="#0c374114" stroke-width="0.5" rx="2"></rect></g><path d="M 396.875 119.375 L 635.625 71.625 L 826.625 119.375 L 1065.375 71.625" fill="none" stroke="#ff6b35" stroke-width="2.3875" stroke-linecap="round" stroke-linejoin="round" stroke-dasharray="5.7299999999999995 4.775" opacity="0.9"></path><g><rect x="385.8925" y="108.3925" width="21.965" height="21.965" rx="4" fill="#ffffff" stroke="#ff6b35" stroke-width="1.75"></rect><text x="396.875" y="120.375" text-anchor="middle" dominant-baseline="central" font-size="13.6183" font-weight="700" font-family="ui-monospace, SFMono-Regular, Menlo, monospace" fill="#0c3741">1</text></g><g><circle cx="635.625" cy="71.625" r="35.144" fill="url(#glow-«R0»)"></circle><rect x="620.6425" y="56.6425" width="29.965" height="29.965" rx="6" fill="#ff6b35" opacity="0.18"><animate attributeName="opacity" values="0.28;0;0.28" dur="2.4s" repeatCount="indefinite"></animate></rect><rect x="624.6425" y="60.6425" width="21.965" height="21.965" rx="4" fill="#ffffff" stroke="#ff6b35" stroke-width="1.75"></rect><text x="635.625" y="72.625" text-anchor="middle" dominant-baseline="central" font-size="13.6183" font-weight="700" font-family="ui-monospace, SFMono-Regular, Menlo, monospace" fill="#0c3741">2</text></g><g><rect x="815.6425" y="108.3925" width="21.965" height="21.965" rx="4" fill="#ffffff" stroke="#ff6b35" stroke-width="1.75"></rect><text x="826.625" y="120.375" text-anchor="middle" dominant-baseline="central" font-size="13.6183" font-weight="700" font-family="ui-monospace, SFMono-Regular, Menlo, monospace" fill="#0c3741">3</text></g><g><rect x="1054.3925" y="60.6425" width="21.965" height="21.965" rx="4" fill="#ffffff" stroke="#ff6b35" stroke-width="1.75"></rect><text x="1065.375" y="72.625" text-anchor="middle" dominant-baseline="central" font-size="13.6183" font-weight="700" font-family="ui-monospace, SFMono-Regular, Menlo, monospace" fill="#0c3741">4</text></g></svg>