<?xml version="1.0" encoding="UTF-8"?>
<svg xmlns="http://www.w3.org/2000/svg" width="1500" height="500" viewBox="0 0 1500 500"  role="img" aria-label="A trail of code locations connected across a wide top-down city of files"><defs><radialGradient id="glow-«R0»" cx="50%" cy="50%" r="50%"><stop offset="0%" stop-color="#ff6b35" stop-opacity="0.35"></stop><stop offset="100%" stop-color="#ff6b35" stop-opacity="0"></stop></radialGradient></defs><rect x="0" y="0" width="1500" height="500" fill="#dff1f5"></rect><g><rect x="60" y="4.444444444444445" width="46.66666666666667" height="46.66666666666667" fill="#ff6b358c" stroke="#0c374114" stroke-width="0.5" rx="2"></rect><rect x="115.55555555555556" y="4.444444444444445" width="46.66666666666667" height="46.66666666666667" fill="#ff6b355c" stroke="#0c374114" stroke-width="0.5" rx="2"></rect><rect x="171.11111111111114" y="4.444444444444445" width="46.66666666666667" height="46.66666666666667" fill="#ff6b358c" stroke="#0c374114" stroke-width="0.5" rx="2"></rect><rect x="226.66666666666669" y="4.444444444444445" width="46.66666666666667" height="46.66666666666667" fill="#0c374173" stroke="#0c374114" stroke-width="0.5" rx="2"></rect><rect x="282.22222222222223" y="4.444444444444445" width="46.66666666666667" height="46.66666666666667" fill="#ff6b355c" stroke="#0c374114" stroke-width="0.5" rx="2"></rect><rect x="448.8888888888889" y="4.444444444444445" width="46.66666666666667" height="46.66666666666667" fill="#0c374173" stroke="#0c374114" stroke-width="0.5" rx="2"></rect><rect x="504.44444444444446" y="4.444444444444445" width="46.66666666666667" height="46.66666666666667" fill="#ff6b358c" stroke="#0c374114" stroke-width="0.5" rx="2"></rect><rect x="560" y="4.444444444444445" width="46.66666666666667" height="46.66666666666667" fill="#0c37414d" stroke="#0c374114" stroke-width="0.5" rx="2"></rect><rect x="615.5555555555555" y="4.444444444444445" width="46.66666666666667" height="46.66666666666667" fill="#0c374173" stroke="#0c374114" stroke-width="0.5" rx="2"></rect><rect x="671.1111111111112" y="4.444444444444445" width="46.66666666666667" height="46.66666666666667" fill="#ff6b358c" stroke="#0c374114" stroke-width="0.5" rx="2"></rect><rect x="782.2222222222223" y="4.444444444444445" width="46.66666666666667" height="46.66666666666667" fill="#ff6b355c" stroke="#0c374114" stroke-width="0.5" rx="2"></rect><rect x="837.7777777777778" y="4.444444444444445" width="46.66666666666667" height="46.66666666666667" fill="#0c374173" stroke="#0c374114" stroke-width="0.5" rx="2"></rect><rect x="893.3333333333334" y="4.444444444444445" width="46.66666666666667" height="46.66666666666667" fill="#0c37412e" stroke="#0c374114" stroke-width="0.5" rx="2"></rect><rect x="948.8888888888889" y="4.444444444444445" width="46.66666666666667" height="46.66666666666667" fill="#0c374173" stroke="#0c374114" stroke-width="0.5" rx="2"></rect><rect x="1004.4444444444445" y="4.444444444444445" width="46.66666666666667" height="46.66666666666667" fill="#0c37412e" stroke="#0c374114" stroke-width="0.5" rx="2"></rect><rect x="1060" y="4.444444444444445" width="46.66666666666667" height="46.66666666666667" fill="#ff6b358c" stroke="#0c374114" stroke-width="0.5" rx="2"></rect><rect x="1115.5555555555554" y="4.444444444444445" width="46.66666666666667" height="46.66666666666667" fill="#0c374173" stroke="#0c374114" stroke-width="0.5" rx="2"></rect><rect x="1171.111111111111" y="4.444444444444445" width="46.66666666666667" height="46.66666666666667" fill="#0c37414d" stroke="#0c374114" stroke-width="0.5" rx="2"></rect><rect x="1226.6666666666665" y="4.444444444444445" width="46.66666666666667" height="46.66666666666667" fill="#ff6b358c" stroke="#0c374114" stroke-width="0.5" rx="2"></rect><rect x="1337.7777777777778" y="4.444444444444445" width="46.66666666666667" height="46.66666666666667" fill="#0c37412e" stroke="#0c374114" stroke-width="0.5" rx="2"></rect><rect x="1393.3333333333333" y="4.444444444444445" width="46.66666666666667" height="46.66666666666667" fill="#0c374173" stroke="#0c374114" stroke-width="0.5" rx="2"></rect><rect x="1448.888888888889" y="4.444444444444445" width="46.66666666666667" height="46.66666666666667" fill="#0c374173" stroke="#0c374114" stroke-width="0.5" rx="2"></rect><rect x="60" y="60" width="46.66666666666667" height="46.66666666666667" fill="#0c374173" stroke="#0c374114" stroke-width="0.5" rx="2"></rect><rect x="115.55555555555556" y="60" width="46.66666666666667" height="46.66666666666667" fill="#0c374173" stroke="#0c374114" stroke-width="0.5" rx="2"></rect><rect x="171.11111111111114" y="60" width="46.66666666666667" height="46.66666666666667" fill="#0c37412e" stroke="#0c374114" stroke-width="0.5" rx="2"></rect><rect x="226.66666666666669" y="60" width="46.66666666666667" height="46.66666666666667" fill="#0c374173" stroke="#0c374114" stroke-width="0.5" rx="2"></rect><rect x="282.22222222222223" y="60" width="46.66666666666667" height="46.66666666666667" fill="#0c37412e" stroke="#0c374114" stroke-width="0.5" rx="2"></rect><rect x="337.7777777777778" y="60" width="46.66666666666667" height="46.66666666666667" fill="#0c37412e" stroke="#0c374114" stroke-width="0.5" rx="2"></rect><rect x="393.33333333333337" y="60" width="46.66666666666667" height="46.66666666666667" fill="#ff6b355c" stroke="#0c374114" stroke-width="0.5" rx="2"></rect><rect x="504.44444444444446" y="60" width="46.66666666666667" height="46.66666666666667" fill="#0c37414d" stroke="#0c374114" stroke-width="0.5" rx="2"></rect><rect x="560" y="60" width="46.66666666666667" height="46.66666666666667" fill="#0c37414d" stroke="#0c374114" stroke-width="0.5" rx="2"></rect><rect x="615.5555555555555" y="60" width="46.66666666666667" height="46.66666666666667" fill="#0c37412e" stroke="#0c374114" stroke-width="0.5" rx="2"></rect><rect x="671.1111111111112" y="60" width="46.66666666666667" height="46.66666666666667" fill="#0c37414d" stroke="#0c374114" stroke-width="0.5" rx="2"></rect><rect x="782.2222222222223" y="60" width="46.66666666666667" height="46.66666666666667" fill="#0c374173" stroke="#0c374114" stroke-width="0.5" rx="2"></rect><rect x="837.7777777777778" y="60" width="46.66666666666667" height="46.66666666666667" fill="#0c374173" stroke="#0c374114" stroke-width="0.5" rx="2"></rect><rect x="893.3333333333334" y="60" width="46.66666666666667" height="46.66666666666667" fill="#0c37412e" stroke="#0c374114" stroke-width="0.5" rx="2"></rect><rect x="948.8888888888889" y="60" width="46.66666666666667" height="46.66666666666667" fill="#0c374173" stroke="#0c374114" stroke-width="0.5" rx="2"></rect><rect x="1004.4444444444445" y="60" width="46.66666666666667" height="46.66666666666667" fill="#0c37412e" stroke="#0c374114" stroke-width="0.5" rx="2"></rect><rect x="1060" y="60" width="46.66666666666667" height="46.66666666666667" fill="#0c37412e" stroke="#0c374114" stroke-width="0.5" rx="2"></rect><rect x="1115.5555555555554" y="60" width="46.66666666666667" height="46.66666666666667" fill="#ff6b358c" stroke="#0c374114" stroke-width="0.5" rx="2"></rect><rect x="1171.111111111111" y="60" width="46.66666666666667" height="46.66666666666667" fill="#ff6b358c" stroke="#0c374114" stroke-width="0.5" rx="2"></rect><rect x="1282.2222222222222" y="60" width="46.66666666666667" height="46.66666666666667" fill="#0c37414d" stroke="#0c374114" stroke-width="0.5" rx="2"></rect><rect x="1337.7777777777778" y="60" width="46.66666666666667" height="46.66666666666667" fill="#0c374173" stroke="#0c374114" stroke-width="0.5" rx="2"></rect><rect x="1393.3333333333333" y="60" width="46.66666666666667" height="46.66666666666667" fill="#0c37412e" stroke="#0c374114" stroke-width="0.5" rx="2"></rect><rect x="1448.888888888889" y="60" width="46.66666666666667" height="46.66666666666667" fill="#0c37414d" stroke="#0c374114" stroke-width="0.5" rx="2"></rect><rect x="4.444444444444445" y="115.55555555555556" width="46.66666666666667" height="46.66666666666667" fill="#ff6b358c" stroke="#0c374114" stroke-width="0.5" rx="2"></rect><rect x="60" y="115.55555555555556" width="46.66666666666667" height="46.66666666666667" fill="#0c37414d" stroke="#0c374114" stroke-width="0.5" rx="2"></rect><rect x="115.55555555555556" y="115.55555555555556" width="46.66666666666667" height="46.66666666666667" fill="#0c374173" stroke="#0c374114" stroke-width="0.5" rx="2"></rect><rect x="171.11111111111114" y="115.55555555555556" width="46.66666666666667" height="46.66666666666667" fill="#ff6b358c" stroke="#0c374114" stroke-width="0.5" rx="2"></rect><rect x="226.66666666666669" y="115.55555555555556" width="46.66666666666667" height="46.66666666666667" fill="#0c374173" stroke="#0c374114" stroke-width="0.5" rx="2"></rect><rect x="282.22222222222223" y="115.55555555555556" width="46.66666666666667" height="46.66666666666667" fill="#0c37412e" stroke="#0c374114" stroke-width="0.5" rx="2"></rect><rect x="337.7777777777778" y="115.55555555555556" width="46.66666666666667" height="46.66666666666667" fill="#ff6b358c" stroke="#0c374114" stroke-width="0.5" rx="2"></rect><rect x="393.33333333333337" y="115.55555555555556" width="46.66666666666667" height="46.66666666666667" fill="#ff6b355c" stroke="#0c374114" stroke-width="0.5" rx="2"></rect><rect x="448.8888888888889" y="115.55555555555556" width="46.66666666666667" height="46.66666666666667" fill="#ff6b355c" stroke="#0c374114" stroke-width="0.5" rx="2"></rect><rect x="504.44444444444446" y="115.55555555555556" width="46.66666666666667" height="46.66666666666667" fill="#ff6b358c" stroke="#0c374114" stroke-width="0.5" rx="2"></rect><rect x="560" y="115.55555555555556" width="46.66666666666667" height="46.66666666666667" fill="#0c37412e" stroke="#0c374114" stroke-width="0.5" rx="2"></rect><rect x="615.5555555555555" y="115.55555555555556" width="46.66666666666667" height="46.66666666666667" fill="#ff6b358c" stroke="#0c374114" stroke-width="0.5" rx="2"></rect><rect x="671.1111111111112" y="115.55555555555556" width="46.66666666666667" height="46.66666666666667" fill="#0c37412e" stroke="#0c374114" stroke-width="0.5" rx="2"></rect><rect x="782.2222222222223" y="115.55555555555556" width="46.66666666666667" height="46.66666666666667" fill="#0c37414d" stroke="#0c374114" stroke-width="0.5" rx="2"></rect><rect x="837.7777777777778" y="115.55555555555556" width="46.66666666666667" height="46.66666666666667" fill="#0c37414d" stroke="#0c374114" stroke-width="0.5" rx="2"></rect><rect x="893.3333333333334" y="115.55555555555556" width="46.66666666666667" height="46.66666666666667" fill="#0c37414d" stroke="#0c374114" stroke-width="0.5" rx="2"></rect><rect x="948.8888888888889" y="115.55555555555556" width="46.66666666666667" height="46.66666666666667" fill="#0c374173" stroke="#0c374114" stroke-width="0.5" rx="2"></rect><rect x="1004.4444444444445" y="115.55555555555556" width="46.66666666666667" height="46.66666666666667" fill="#ff6b355c" stroke="#0c374114" stroke-width="0.5" rx="2"></rect><rect x="1060" y="115.55555555555556" width="46.66666666666667" height="46.66666666666667" fill="#ff6b355c" stroke="#0c374114" stroke-width="0.5" rx="2"></rect><rect x="1115.5555555555554" y="115.55555555555556" width="46.66666666666667" height="46.66666666666667" fill="#ff6b358c" stroke="#0c374114" stroke-width="0.5" rx="2"></rect><rect x="1171.111111111111" y="115.55555555555556" width="46.66666666666667" height="46.66666666666667" fill="#0c374173" stroke="#0c374114" stroke-width="0.5" rx="2"></rect><rect x="1226.6666666666665" y="115.55555555555556" width="46.66666666666667" height="46.66666666666667" fill="#0c37414d" stroke="#0c374114" stroke-width="0.5" rx="2"></rect><rect x="1282.2222222222222" y="115.55555555555556" width="46.66666666666667" height="46.66666666666667" fill="#0c37412e" stroke="#0c374114" stroke-width="0.5" rx="2"></rect><rect x="1337.7777777777778" y="115.55555555555556" width="46.66666666666667" height="46.66666666666667" fill="#0c37412e" stroke="#0c374114" stroke-width="0.5" rx="2"></rect><rect x="1393.3333333333333" y="115.55555555555556" width="46.66666666666667" height="46.66666666666667" fill="#ff6b358c" stroke="#0c374114" stroke-width="0.5" rx="2"></rect><rect x="4.444444444444445" y="171.11111111111114" width="46.66666666666667" height="46.66666666666667" fill="#0c37414d" stroke="#0c374114" stroke-width="0.5" rx="2"></rect><rect x="60" y="171.11111111111114" width="46.66666666666667" height="46.66666666666667" fill="#0c37414d" stroke="#0c374114" stroke-width="0.5" rx="2"></rect><rect x="115.55555555555556" y="171.11111111111114" width="46.66666666666667" height="46.66666666666667" fill="#ff6b358c" stroke="#0c374114" stroke-width="0.5" rx="2"></rect><rect x="171.11111111111114" y="171.11111111111114" width="46.66666666666667" height="46.66666666666667" fill="#0c37414d" stroke="#0c374114" stroke-width="0.5" rx="2"></rect><rect x="226.66666666666669" y="171.11111111111114" width="46.66666666666667" height="46.66666666666667" fill="#0c37414d" stroke="#0c374114" stroke-width="0.5" rx="2"></rect><rect x="282.22222222222223" y="171.11111111111114" width="46.66666666666667" height="46.66666666666667" fill="#0c374173" stroke="#0c374114" stroke-width="0.5" rx="2"></rect><rect x="393.33333333333337" y="171.11111111111114" width="46.66666666666667" height="46.66666666666667" fill="#0c374173" stroke="#0c374114" stroke-width="0.5" rx="2"></rect><rect x="448.8888888888889" y="171.11111111111114" width="46.66666666666667" height="46.66666666666667" fill="#ff6b358c" stroke="#0c374114" stroke-width="0.5" rx="2"></rect><rect x="504.44444444444446" y="171.11111111111114" width="46.66666666666667" height="46.66666666666667" fill="#0c37412e" stroke="#0c374114" stroke-width="0.5" rx="2"></rect><rect x="560" y="171.11111111111114" width="46.66666666666667" height="46.66666666666667" fill="#0c374173" stroke="#0c374114" stroke-width="0.5" rx="2"></rect><rect x="615.5555555555555" y="171.11111111111114" width="46.66666666666667" height="46.66666666666667" fill="#ff6b355c" stroke="#0c374114" stroke-width="0.5" rx="2"></rect><rect x="671.1111111111112" y="171.11111111111114" width="46.66666666666667" height="46.66666666666667" fill="#0c37414d" stroke="#0c374114" stroke-width="0.5" rx="2"></rect><rect x="726.6666666666667" y="171.11111111111114" width="46.66666666666667" height="46.66666666666667" fill="#0c37412e" stroke="#0c374114" stroke-width="0.5" rx="2"></rect><rect x="782.2222222222223" y="171.11111111111114" width="46.66666666666667" height="46.66666666666667" fill="#0c374173" stroke="#0c374114" stroke-width="0.5" rx="2"></rect><rect x="837.7777777777778" y="171.11111111111114" width="46.66666666666667" height="46.66666666666667" fill="#ff6b358c" stroke="#0c374114" stroke-width="0.5" rx="2"></rect><rect x="948.8888888888889" y="171.11111111111114" width="46.66666666666667" height="46.66666666666667" fill="#0c37414d" stroke="#0c374114" stroke-width="0.5" rx="2"></rect><rect x="1004.4444444444445" y="171.11111111111114" width="46.66666666666667" height="46.66666666666667" fill="#0c37414d" stroke="#0c374114" stroke-width="0.5" rx="2"></rect><rect x="1060" y="171.11111111111114" width="46.66666666666667" height="46.66666666666667" fill="#0c37414d" stroke="#0c374114" stroke-width="0.5" rx="2"></rect><rect x="1115.5555555555554" y="171.11111111111114" width="46.66666666666667" height="46.66666666666667" fill="#0c374173" stroke="#0c374114" stroke-width="0.5" rx="2"></rect><rect x="1171.111111111111" y="171.11111111111114" width="46.66666666666667" height="46.66666666666667" fill="#ff6b358c" stroke="#0c374114" stroke-width="0.5" rx="2"></rect><rect x="1226.6666666666665" y="171.11111111111114" width="46.66666666666667" height="46.66666666666667" fill="#ff6b355c" stroke="#0c374114" stroke-width="0.5" rx="2"></rect><rect x="1282.2222222222222" y="171.11111111111114" width="46.66666666666667" height="46.66666666666667" fill="#ff6b358c" stroke="#0c374114" stroke-width="0.5" rx="2"></rect><rect x="1337.7777777777778" y="171.11111111111114" width="46.66666666666667" height="46.66666666666667" fill="#0c37414d" stroke="#0c374114" stroke-width="0.5" rx="2"></rect><rect x="1393.3333333333333" y="171.11111111111114" width="46.66666666666667" height="46.66666666666667" fill="#0c374173" stroke="#0c374114" stroke-width="0.5" rx="2"></rect><rect x="60" y="226.66666666666669" width="46.66666666666667" height="46.66666666666667" fill="#ff6b358c" stroke="#0c374114" stroke-width="0.5" rx="2"></rect><rect x="115.55555555555556" y="226.66666666666669" width="46.66666666666667" height="46.66666666666667" fill="#0c37414d" stroke="#0c374114" stroke-width="0.5" rx="2"></rect><rect x="171.11111111111114" y="226.66666666666669" width="46.66666666666667" height="46.66666666666667" fill="#ff6b358c" stroke="#0c374114" stroke-width="0.5" rx="2"></rect><rect x="226.66666666666669" y="226.66666666666669" width="46.66666666666667" height="46.66666666666667" fill="#ff6b358c" stroke="#0c374114" stroke-width="0.5" rx="2"></rect><rect x="282.22222222222223" y="226.66666666666669" width="46.66666666666667" height="46.66666666666667" fill="#ff6b358c" stroke="#0c374114" stroke-width="0.5" rx="2"></rect><rect x="393.33333333333337" y="226.66666666666669" width="46.66666666666667" height="46.66666666666667" fill="#ff6b355c" stroke="#0c374114" stroke-width="0.5" rx="2"></rect><rect x="448.8888888888889" y="226.66666666666669" width="46.66666666666667" height="46.66666666666667" fill="#0c37412e" stroke="#0c374114" stroke-width="0.5" rx="2"></rect><rect x="671.1111111111112" y="226.66666666666669" width="46.66666666666667" height="46.66666666666667" fill="#0c374173" stroke="#0c374114" stroke-width="0.5" rx="2"></rect><rect x="726.6666666666667" y="226.66666666666669" width="46.66666666666667" height="46.66666666666667" fill="#0c37414d" stroke="#0c374114" stroke-width="0.5" rx="2"></rect><rect x="782.2222222222223" y="226.66666666666669" width="46.66666666666667" height="46.66666666666667" fill="#ff6b358c" stroke="#0c374114" stroke-width="0.5" rx="2"></rect><rect x="837.7777777777778" y="226.66666666666669" width="46.66666666666667" height="46.66666666666667" fill="#0c37414d" stroke="#0c374114" stroke-width="0.5" rx="2"></rect><rect x="948.8888888888889" y="226.66666666666669" width="46.66666666666667" height="46.66666666666667" fill="#ff6b358c" stroke="#0c374114" stroke-width="0.5" rx="2"></rect><rect x="1115.5555555555554" y="226.66666666666669" width="46.66666666666667" height="46.66666666666667" fill="#0c37414d" stroke="#0c374114" stroke-width="0.5" rx="2"></rect><rect x="1171.111111111111" y="226.66666666666669" width="46.66666666666667" height="46.66666666666667" fill="#0c37412e" stroke="#0c374114" stroke-width="0.5" rx="2"></rect><rect x="1226.6666666666665" y="226.66666666666669" width="46.66666666666667" height="46.66666666666667" fill="#0c374173" stroke="#0c374114" stroke-width="0.5" rx="2"></rect><rect x="1282.2222222222222" y="226.66666666666669" width="46.66666666666667" height="46.66666666666667" fill="#ff6b358c" stroke="#0c374114" stroke-width="0.5" rx="2"></rect><rect x="1337.7777777777778" y="226.66666666666669" width="46.66666666666667" height="46.66666666666667" fill="#ff6b358c" stroke="#0c374114" stroke-width="0.5" rx="2"></rect><rect x="1393.3333333333333" y="226.66666666666669" width="46.66666666666667" height="46.66666666666667" fill="#0c37414d" stroke="#0c374114" stroke-width="0.5" rx="2"></rect><rect x="1448.888888888889" y="226.66666666666669" width="46.66666666666667" height="46.66666666666667" fill="#0c37414d" stroke="#0c374114" stroke-width="0.5" rx="2"></rect><rect x="4.444444444444445" y="282.22222222222223" width="46.66666666666667" height="46.66666666666667" fill="#0c37414d" stroke="#0c374114" stroke-width="0.5" rx="2"></rect><rect x="60" y="282.22222222222223" width="46.66666666666667" height="46.66666666666667" fill="#0c374173" stroke="#0c374114" stroke-width="0.5" rx="2"></rect><rect x="115.55555555555556" y="282.22222222222223" width="46.66666666666667" height="46.66666666666667" fill="#ff6b358c" stroke="#0c374114" stroke-width="0.5" rx="2"></rect><rect x="171.11111111111114" y="282.22222222222223" width="46.66666666666667" height="46.66666666666667" fill="#0c37412e" stroke="#0c374114" stroke-width="0.5" rx="2"></rect><rect x="226.66666666666669" y="282.22222222222223" width="46.66666666666667" height="46.66666666666667" fill="#ff6b355c" stroke="#0c374114" stroke-width="0.5" rx="2"></rect><rect x="282.22222222222223" y="282.22222222222223" width="46.66666666666667" height="46.66666666666667" fill="#0c374173" stroke="#0c374114" stroke-width="0.5" rx="2"></rect><rect x="337.7777777777778" y="282.22222222222223" width="46.66666666666667" height="46.66666666666667" fill="#0c374173" stroke="#0c374114" stroke-width="0.5" rx="2"></rect><rect x="393.33333333333337" y="282.22222222222223" width="46.66666666666667" height="46.66666666666667" fill="#0c37414d" stroke="#0c374114" stroke-width="0.5" rx="2"></rect><rect x="504.44444444444446" y="282.22222222222223" width="46.66666666666667" height="46.66666666666667" fill="#0c374173" stroke="#0c374114" stroke-width="0.5" rx="2"></rect><rect x="560" y="282.22222222222223" width="46.66666666666667" height="46.66666666666667" fill="#0c37412e" stroke="#0c374114" stroke-width="0.5" rx="2"></rect><rect x="615.5555555555555" y="282.22222222222223" width="46.66666666666667" height="46.66666666666667" fill="#ff6b355c" stroke="#0c374114" stroke-width="0.5" rx="2"></rect><rect x="726.6666666666667" y="282.22222222222223" width="46.66666666666667" height="46.66666666666667" fill="#ff6b358c" stroke="#0c374114" stroke-width="0.5" rx="2"></rect><rect x="837.7777777777778" y="282.22222222222223" width="46.66666666666667" height="46.66666666666667" fill="#ff6b355c" stroke="#0c374114" stroke-width="0.5" rx="2"></rect><rect x="893.3333333333334" y="282.22222222222223" width="46.66666666666667" height="46.66666666666667" fill="#ff6b355c" stroke="#0c374114" stroke-width="0.5" rx="2"></rect><rect x="948.8888888888889" y="282.22222222222223" width="46.66666666666667" height="46.66666666666667" fill="#0c374173" stroke="#0c374114" stroke-width="0.5" rx="2"></rect><rect x="1004.4444444444445" y="282.22222222222223" width="46.66666666666667" height="46.66666666666667" fill="#ff6b358c" stroke="#0c374114" stroke-width="0.5" rx="2"></rect><rect x="1060" y="282.22222222222223" width="46.66666666666667" height="46.66666666666667" fill="#0c37414d" stroke="#0c374114" stroke-width="0.5" rx="2"></rect><rect x="1115.5555555555554" y="282.22222222222223" width="46.66666666666667" height="46.66666666666667" fill="#0c37414d" stroke="#0c374114" stroke-width="0.5" rx="2"></rect><rect x="1171.111111111111" y="282.22222222222223" width="46.66666666666667" height="46.66666666666667" fill="#ff6b355c" stroke="#0c374114" stroke-width="0.5" rx="2"></rect><rect x="1226.6666666666665" y="282.22222222222223" width="46.66666666666667" height="46.66666666666667" fill="#0c37412e" stroke="#0c374114" stroke-width="0.5" rx="2"></rect><rect x="1282.2222222222222" y="282.22222222222223" width="46.66666666666667" height="46.66666666666667" fill="#ff6b355c" stroke="#0c374114" stroke-width="0.5" rx="2"></rect><rect x="1337.7777777777778" y="282.22222222222223" width="46.66666666666667" height="46.66666666666667" fill="#0c374173" stroke="#0c374114" stroke-width="0.5" rx="2"></rect><rect x="1393.3333333333333" y="282.22222222222223" width="46.66666666666667" height="46.66666666666667" fill="#ff6b358c" stroke="#0c374114" stroke-width="0.5" rx="2"></rect><rect x="4.444444444444445" y="337.7777777777778" width="46.66666666666667" height="46.66666666666667" fill="#0c37414d" stroke="#0c374114" stroke-width="0.5" rx="2"></rect><rect x="60" y="337.7777777777778" width="46.66666666666667" height="46.66666666666667" fill="#0c374173" stroke="#0c374114" stroke-width="0.5" rx="2"></rect><rect x="115.55555555555556" y="337.7777777777778" width="46.66666666666667" height="46.66666666666667" fill="#0c37412e" stroke="#0c374114" stroke-width="0.5" rx="2"></rect><rect x="171.11111111111114" y="337.7777777777778" width="46.66666666666667" height="46.66666666666667" fill="#ff6b358c" stroke="#0c374114" stroke-width="0.5" rx="2"></rect><rect x="282.22222222222223" y="337.7777777777778" width="46.66666666666667" height="46.66666666666667" fill="#0c37412e" stroke="#0c374114" stroke-width="0.5" rx="2"></rect><rect x="337.7777777777778" y="337.7777777777778" width="46.66666666666667" height="46.66666666666667" fill="#ff6b358c" stroke="#0c374114" stroke-width="0.5" rx="2"></rect><rect x="393.33333333333337" y="337.7777777777778" width="46.66666666666667" height="46.66666666666667" fill="#0c37412e" stroke="#0c374114" stroke-width="0.5" rx="2"></rect><rect x="448.8888888888889" y="337.7777777777778" width="46.66666666666667" height="46.66666666666667" fill="#ff6b355c" stroke="#0c374114" stroke-width="0.5" rx="2"></rect><rect x="504.44444444444446" y="337.7777777777778" width="46.66666666666667" height="46.66666666666667" fill="#ff6b355c" stroke="#0c374114" stroke-width="0.5" rx="2"></rect><rect x="560" y="337.7777777777778" width="46.66666666666667" height="46.66666666666667" fill="#ff6b355c" stroke="#0c374114" stroke-width="0.5" rx="2"></rect><rect x="671.1111111111112" y="337.7777777777778" width="46.66666666666667" height="46.66666666666667" fill="#0c374173" stroke="#0c374114" stroke-width="0.5" rx="2"></rect><rect x="726.6666666666667" y="337.7777777777778" width="46.66666666666667" height="46.66666666666667" fill="#ff6b355c" stroke="#0c374114" stroke-width="0.5" rx="2"></rect><rect x="782.2222222222223" y="337.7777777777778" width="46.66666666666667" height="46.66666666666667" fill="#0c37412e" stroke="#0c374114" stroke-width="0.5" rx="2"></rect><rect x="837.7777777777778" y="337.7777777777778" width="46.66666666666667" height="46.66666666666667" fill="#ff6b358c" stroke="#0c374114" stroke-width="0.5" rx="2"></rect><rect x="948.8888888888889" y="337.7777777777778" width="46.66666666666667" height="46.66666666666667" fill="#ff6b358c" stroke="#0c374114" stroke-width="0.5" rx="2"></rect><rect x="1004.4444444444445" y="337.7777777777778" width="46.66666666666667" height="46.66666666666667" fill="#0c374173" stroke="#0c374114" stroke-width="0.5" rx="2"></rect><rect x="1060" y="337.7777777777778" width="46.66666666666667" height="46.66666666666667" fill="#0c37412e" stroke="#0c374114" stroke-width="0.5" rx="2"></rect><rect x="1115.5555555555554" y="337.7777777777778" width="46.66666666666667" height="46.66666666666667" fill="#0c374173" stroke="#0c374114" stroke-width="0.5" rx="2"></rect><rect x="1226.6666666666665" y="337.7777777777778" width="46.66666666666667" height="46.66666666666667" fill="#ff6b358c" stroke="#0c374114" stroke-width="0.5" rx="2"></rect><rect x="1282.2222222222222" y="337.7777777777778" width="46.66666666666667" height="46.66666666666667" fill="#ff6b355c" stroke="#0c374114" stroke-width="0.5" rx="2"></rect><rect x="1337.7777777777778" y="337.7777777777778" width="46.66666666666667" height="46.66666666666667" fill="#0c37414d" stroke="#0c374114" stroke-width="0.5" rx="2"></rect><rect x="1393.3333333333333" y="337.7777777777778" width="46.66666666666667" height="46.66666666666667" fill="#ff6b358c" stroke="#0c374114" stroke-width="0.5" rx="2"></rect><rect x="1448.888888888889" y="337.7777777777778" width="46.66666666666667" height="46.66666666666667" fill="#0c37414d" stroke="#0c374114" stroke-width="0.5" rx="2"></rect><rect x="4.444444444444445" y="393.33333333333337" width="46.66666666666667" height="46.66666666666667" fill="#0c374173" stroke="#0c374114" stroke-width="0.5" rx="2"></rect><rect x="60" y="393.33333333333337" width="46.66666666666667" height="46.66666666666667" fill="#0c37414d" stroke="#0c374114" stroke-width="0.5" rx="2"></rect><rect x="115.55555555555556" y="393.33333333333337" width="46.66666666666667" height="46.66666666666667" fill="#ff6b358c" stroke="#0c374114" stroke-width="0.5" rx="2"></rect><rect x="226.66666666666669" y="393.33333333333337" width="46.66666666666667" height="46.66666666666667" fill="#ff6b358c" stroke="#0c374114" stroke-width="0.5" rx="2"></rect><rect x="282.22222222222223" y="393.33333333333337" width="46.66666666666667" height="46.66666666666667" fill="#0c374173" stroke="#0c374114" stroke-width="0.5" rx="2"></rect><rect x="337.7777777777778" y="393.33333333333337" width="46.66666666666667" height="46.66666666666667" fill="#0c37412e" stroke="#0c374114" stroke-width="0.5" rx="2"></rect><rect x="448.8888888888889" y="393.33333333333337" width="46.66666666666667" height="46.66666666666667" fill="#0c37414d" stroke="#0c374114" stroke-width="0.5" rx="2"></rect><rect x="560" y="393.33333333333337" width="46.66666666666667" height="46.66666666666667" fill="#0c37414d" stroke="#0c374114" stroke-width="0.5" rx="2"></rect><rect x="615.5555555555555" y="393.33333333333337" width="46.66666666666667" height="46.66666666666667" fill="#0c37412e" stroke="#0c374114" stroke-width="0.5" rx="2"></rect><rect x="726.6666666666667" y="393.33333333333337" width="46.66666666666667" height="46.66666666666667" fill="#0c374173" stroke="#0c374114" stroke-width="0.5" rx="2"></rect><rect x="837.7777777777778" y="393.33333333333337" width="46.66666666666667" height="46.66666666666667" fill="#0c374173" stroke="#0c374114" stroke-width="0.5" rx="2"></rect><rect x="893.3333333333334" y="393.33333333333337" width="46.66666666666667" height="46.66666666666667" fill="#0c37412e" stroke="#0c374114" stroke-width="0.5" rx="2"></rect><rect x="948.8888888888889" y="393.33333333333337" width="46.66666666666667" height="46.66666666666667" fill="#ff6b355c" stroke="#0c374114" stroke-width="0.5" rx="2"></rect><rect x="1060" y="393.33333333333337" width="46.66666666666667" height="46.66666666666667" fill="#0c374173" stroke="#0c374114" stroke-width="0.5" rx="2"></rect><rect x="1115.5555555555554" y="393.33333333333337" width="46.66666666666667" height="46.66666666666667" fill="#0c37414d" stroke="#0c374114" stroke-width="0.5" rx="2"></rect><rect x="1171.111111111111" y="393.33333333333337" width="46.66666666666667" height="46.66666666666667" fill="#ff6b355c" stroke="#0c374114" stroke-width="0.5" rx="2"></rect><rect x="1226.6666666666665" y="393.33333333333337" width="46.66666666666667" height="46.66666666666667" fill="#0c37414d" stroke="#0c374114" stroke-width="0.5" rx="2"></rect><rect x="1282.2222222222222" y="393.33333333333337" width="46.66666666666667" height="46.66666666666667" fill="#0c37414d" stroke="#0c374114" stroke-width="0.5" rx="2"></rect><rect x="1337.7777777777778" y="393.33333333333337" width="46.66666666666667" height="46.66666666666667" fill="#0c37414d" stroke="#0c374114" stroke-width="0.5" rx="2"></rect><rect x="1448.888888888889" y="393.33333333333337" width="46.66666666666667" height="46.66666666666667" fill="#0c37412e" stroke="#0c374114" stroke-width="0.5" rx="2"></rect><rect x="4.444444444444445" y="448.8888888888889" width="46.66666666666667" height="46.66666666666667" fill="#0c37414d" stroke="#0c374114" stroke-width="0.5" rx="2"></rect><rect x="60" y="448.8888888888889" width="46.66666666666667" height="46.66666666666667" fill="#ff6b355c" stroke="#0c374114" stroke-width="0.5" rx="2"></rect><rect x="115.55555555555556" y="448.8888888888889" width="46.66666666666667" height="46.66666666666667" fill="#0c37412e" stroke="#0c374114" stroke-width="0.5" rx="2"></rect><rect x="171.11111111111114" y="448.8888888888889" width="46.66666666666667" height="46.66666666666667" fill="#0c37414d" stroke="#0c374114" stroke-width="0.5" rx="2"></rect><rect x="226.66666666666669" y="448.8888888888889" width="46.66666666666667" height="46.66666666666667" fill="#0c374173" stroke="#0c374114" stroke-width="0.5" rx="2"></rect><rect x="282.22222222222223" y="448.8888888888889" width="46.66666666666667" height="46.66666666666667" fill="#0c374173" stroke="#0c374114" stroke-width="0.5" rx="2"></rect><rect x="337.7777777777778" y="448.8888888888889" width="46.66666666666667" height="46.66666666666667" fill="#0c37412e" stroke="#0c374114" stroke-width="0.5" rx="2"></rect><rect x="393.33333333333337" y="448.8888888888889" width="46.66666666666667" height="46.66666666666667" fill="#ff6b355c" stroke="#0c374114" stroke-width="0.5" rx="2"></rect><rect x="448.8888888888889" y="448.8888888888889" width="46.66666666666667" height="46.66666666666667" fill="#ff6b358c" stroke="#0c374114" stroke-width="0.5" rx="2"></rect><rect x="504.44444444444446" y="448.8888888888889" width="46.66666666666667" height="46.66666666666667" fill="#0c37412e" stroke="#0c374114" stroke-width="0.5" rx="2"></rect><rect x="615.5555555555555" y="448.8888888888889" width="46.66666666666667" height="46.66666666666667" fill="#ff6b355c" stroke="#0c374114" stroke-width="0.5" rx="2"></rect><rect x="671.1111111111112" y="448.8888888888889" width="46.66666666666667" height="46.66666666666667" fill="#0c374173" stroke="#0c374114" stroke-width="0.5" rx="2"></rect><rect x="726.6666666666667" y="448.8888888888889" width="46.66666666666667" height="46.66666666666667" fill="#0c37412e" stroke="#0c374114" stroke-width="0.5" rx="2"></rect><rect x="782.2222222222223" y="448.8888888888889" width="46.66666666666667" height="46.66666666666667" fill="#0c37412e" stroke="#0c374114" stroke-width="0.5" rx="2"></rect><rect x="837.7777777777778" y="448.8888888888889" width="46.66666666666667" height="46.66666666666667" fill="#0c374173" stroke="#0c374114" stroke-width="0.5" rx="2"></rect><rect x="893.3333333333334" y="448.8888888888889" width="46.66666666666667" height="46.66666666666667" fill="#ff6b358c" stroke="#0c374114" stroke-width="0.5" rx="2"></rect><rect x="948.8888888888889" y="448.8888888888889" width="46.66666666666667" height="46.66666666666667" fill="#ff6b355c" stroke="#0c374114" stroke-width="0.5" rx="2"></rect><rect x="1004.4444444444445" y="448.8888888888889" width="46.66666666666667" height="46.66666666666667" fill="#0c37412e" stroke="#0c374114" stroke-width="0.5" rx="2"></rect><rect x="1115.5555555555554" y="448.8888888888889" width="46.66666666666667" height="46.66666666666667" fill="#ff6b358c" stroke="#0c374114" stroke-width="0.5" rx="2"></rect><rect x="1171.111111111111" y="448.8888888888889" width="46.66666666666667" height="46.66666666666667" fill="#ff6b358c" stroke="#0c374114" stroke-width="0.5" rx="2"></rect><rect x="1226.6666666666665" y="448.8888888888889" width="46.66666666666667" height="46.66666666666667" fill="#0c37412e" stroke="#0c374114" stroke-width="0.5" rx="2"></rect><rect x="1282.2222222222222" y="448.8888888888889" width="46.66666666666667" height="46.66666666666667" fill="#ff6b358c" stroke="#0c374114" stroke-width="0.5" rx="2"></rect><rect x="1337.7777777777778" y="448.8888888888889" width="46.66666666666667" height="46.66666666666667" fill="#ff6b355c" stroke="#0c374114" stroke-width="0.5" rx="2"></rect><rect x="1393.3333333333333" y="448.8888888888889" width="46.66666666666667" height="46.66666666666667" fill="#0c37412e" stroke="#0c374114" stroke-width="0.5" rx="2"></rect><rect x="1448.888888888889" y="448.8888888888889" width="46.66666666666667" height="46.66666666666667" fill="#0c37412e" stroke="#0c374114" stroke-width="0.5" rx="2"></rect></g><path d="M 527.7777777777778 361.11111111111114 L 805.5555555555557 194.44444444444446 L 1138.888888888889 305.55555555555554 L 1361.1111111111113 194.44444444444446" fill="none" stroke="#ff6b35" stroke-width="2.777777777777778" stroke-linecap="round" stroke-linejoin="round" stroke-dasharray="6.666666666666667 5.555555555555556" opacity="0.9"></path><path d="M 805.5555555555557 194.44444444444446 L 805.5555555555557 197.44444444444446 Q 805.5555555555557 200.44444444444446 808.5555555555557 200.44444444444446 L 1008.4444444444445 200.44444444444446" fill="none" stroke="#ff6b35" stroke-width="1.5" stroke-dasharray="5 4" opacity="0.75"></path><circle cx="1008.4444444444445" cy="200.44444444444446" r="3" fill="#ff6b35"></circle><g><rect x="515" y="348.33333333333337" width="25.555555555555557" height="25.555555555555557" rx="4" fill="#ffffff" stroke="#ff6b35" stroke-width="1.75"></rect><text x="527.7777777777778" y="362.11111111111114" text-anchor="middle" dominant-baseline="central" font-size="15.844444444444445" font-weight="700" font-family="ui-monospace, SFMono-Regular, Menlo, monospace" fill="#0c3741">1</text></g><g><circle cx="805.5555555555557" cy="194.44444444444446" r="40.88888888888889" fill="url(#glow-«R0»)"></circle><rect x="788.7777777777778" y="177.66666666666669" width="33.55555555555556" height="33.55555555555556" rx="6" fill="#ff6b35" opacity="0.18"><animate attributeName="opacity" values="0.28;0;0.28" dur="2.4s" repeatCount="indefinite"></animate></rect><rect x="792.7777777777778" y="181.66666666666669" width="25.555555555555557" height="25.555555555555557" rx="4" fill="#ffffff" stroke="#ff6b35" stroke-width="1.75"></rect><text x="805.5555555555557" y="195.44444444444446" text-anchor="middle" dominant-baseline="central" font-size="15.844444444444445" font-weight="700" font-family="ui-monospace, SFMono-Regular, Menlo, monospace" fill="#0c3741">2</text></g><g><rect x="1126.111111111111" y="292.77777777777777" width="25.555555555555557" height="25.555555555555557" rx="4" fill="#ffffff" stroke="#ff6b35" stroke-width="1.75"></rect><text x="1138.888888888889" y="306.55555555555554" text-anchor="middle" dominant-baseline="central" font-size="15.844444444444445" font-weight="700" font-family="ui-monospace, SFMono-Regular, Menlo, monospace" fill="#0c3741">3</text></g><g><rect x="1348.3333333333335" y="181.66666666666669" width="25.555555555555557" height="25.555555555555557" rx="4" fill="#ffffff" stroke="#ff6b35" stroke-width="1.75"></rect><text x="1361.1111111111113" y="195.44444444444446" text-anchor="middle" dominant-baseline="central" font-size="15.844444444444445" font-weight="700" font-family="ui-monospace, SFMono-Regular, Menlo, monospace" fill="#0c3741">4</text></g><g transform="translate(994.4444444444445, 106)"><rect width="288.8888888888889" height="94.44444444444444" rx="10" fill="#ffffff" stroke="#ff6b358c" stroke-width="1.5"></rect><rect width="288.8888888888889" height="30" rx="10" fill="#ff6b351a"></rect><text x="14.444444444444446" y="15" dominant-baseline="central" font-size="13.8" font-family="ui-monospace, SFMono-Regular, Menlo, monospace" fill="#0c3741">db/users.ts:42</text><g transform="translate(14.444444444444446, 44.44444444444444)"><rect x="0" y="0" width="150.22222222222223" height="5.666666666666666" rx="2" fill="#7fa8b2" opacity="0.75"></rect><rect x="0" y="14.285714285714286" width="202.22222222222226" height="5.666666666666666" rx="2" fill="#0c3741" opacity="0.75"></rect><rect x="0" y="28.571428571428573" width="101.11111111111114" height="5.666666666666666" rx="2" fill="#ff6b35" opacity="0.75"></rect></g></g></svg>