<?xml version="1.0" encoding="UTF-8"?>
<svg width="16" height="16" viewBox="23 23 154 154" xmlns="http://www.w3.org/2000/svg" style="opacity:1"><rect x="23" y="23" width="154" height="154" fill="rgba(12,23,65,1)"/><defs><radialGradient id="sphereGlow" cx="50%" cy="50%" r="50%"><stop offset="0%" style="stop-color:#ff6b35;stop-opacity:0.3"></stop><stop offset="100%" style="stop-color:#ff6b35;stop-opacity:0"></stop></radialGradient><radialGradient id="centerPulse" cx="50%" cy="50%" r="50%"><stop offset="0%" style="stop-color:#ff6b35;stop-opacity:0.8"><animate attributeName="stop-opacity" values="0.8;0.3;0.8" dur="2s" repeatCount="indefinite"></animate></stop><stop offset="100%" style="stop-color:#ff6b35;stop-opacity:0"></stop></radialGradient></defs><line x1="100" y1="33" x2="100" y2="68" stroke="#ff6b35" stroke-width="1" opacity="0.7"></line><line x1="100" y1="167" x2="100" y2="132" stroke="#ff6b35" stroke-width="1" opacity="0.7"></line><line x1="33" y1="100" x2="68" y2="100" stroke="#ff6b35" stroke-width="1" opacity="0.7"></line><line x1="167" y1="100" x2="132" y2="100" stroke="#ff6b35" stroke-width="1" opacity="0.7"></line><ellipse cx="100" cy="100" rx="67" ry="32" fill="none" stroke="#ff6b35" stroke-width="1" opacity="0.7"></ellipse><ellipse cx="100" cy="100" rx="32" ry="67" fill="none" stroke="#ff6b35" stroke-width="1" opacity="0.7"></ellipse><ellipse cx="100" cy="100" rx="67" ry="40" fill="none" stroke="#ff6b35" stroke-width="1" opacity="0.7" transform="rotate(30 100 100)"></ellipse><ellipse cx="100" cy="100" rx="67" ry="40" fill="none" stroke="#ff6b35" stroke-width="1" opacity="0.7" transform="rotate(60 100 100)"></ellipse><ellipse cx="100" cy="100" rx="67" ry="40" fill="none" stroke="#ff6b35" stroke-width="1" opacity="0.7" transform="rotate(120 100 100)"></ellipse><ellipse cx="100" cy="100" rx="67" ry="40" fill="none" stroke="#ff6b35" stroke-width="1" opacity="0.7" transform="rotate(150 100 100)"></ellipse><circle cx="100" cy="100" r="67" fill="none" stroke="#ff6b35" stroke-width="1.5" opacity="0.9"></circle><circle cx="90" cy="79" r="2.5" fill="#e8f4f6" opacity="0.9"></circle><circle cx="90" cy="86" r="2.5" fill="#e8f4f6" opacity="0.9"></circle><circle cx="90" cy="93" r="2.5" fill="#e8f4f6" opacity="0.9"></circle><circle cx="90" cy="100" r="2.5" fill="#e8f4f6" opacity="0.9"></circle><circle cx="90" cy="107" r="2.5" fill="#e8f4f6" opacity="0.9"></circle><circle cx="90" cy="114" r="2.5" fill="#e8f4f6" opacity="0.9"></circle><circle cx="90" cy="121" r="2.5" fill="#e8f4f6" opacity="0.9"></circle><circle cx="97" cy="79" r="2.5" fill="#e8f4f6" opacity="0.9"></circle><circle cx="104" cy="79" r="2.5" fill="#e8f4f6" opacity="0.9"></circle><circle cx="111" cy="86" r="2.5" fill="#e8f4f6" opacity="0.9"></circle><circle cx="111" cy="93" r="2.5" fill="#e8f4f6" opacity="0.9"></circle><circle cx="104" cy="100" r="2.5" fill="#e8f4f6" opacity="0.9"></circle><circle cx="97" cy="100" r="2.5" fill="#e8f4f6" opacity="0.9"></circle><g transform="translate(100, 100)"><circle cx="67" cy="0" r="2.5" fill="#e8f4f6" opacity="0.9"><animateMotion dur="8s" repeatCount="indefinite" path="M 67,0 A 67,32 0 0,1 -67,0 A 67,32 0 0,1 67,0"></animateMotion></circle><circle cx="0" cy="-67" r="2.5" fill="#e8f4f6" opacity="0.9"><animateMotion dur="8s" repeatCount="indefinite" path="M 0,-67 A 32,67 0 0,1 0,67 A 32,67 0 0,1 0,-67"></animateMotion></circle></g></svg>