<?xml version="1.0" encoding="UTF-8"?>
<svg width="192" height="192" viewBox="30 30 140 140" xmlns="http://www.w3.org/2000/svg" style="opacity:1"><rect width="100%" height="100%" fill="rgba(26,28,30,1)"/><defs><radialGradient id="sphereGlow" cx="50%" cy="50%" r="50%"><stop offset="0%" style="stop-color:#E4C04A;stop-opacity:0.3"></stop><stop offset="100%" style="stop-color:#E4C04A;stop-opacity:0"></stop></radialGradient><radialGradient id="centerPulse" cx="50%" cy="50%" r="50%"><stop offset="0%" style="stop-color:#E4C04A;stop-opacity:0.8"><animate attributeName="stop-opacity" values="0.8;0.3;0.8" dur="2s" repeatCount="indefinite"></animate></stop><stop offset="100%" style="stop-color:#E4C04A;stop-opacity:0"></stop></radialGradient></defs><circle cx="93" cy="85" r="2" fill="#ffffff" opacity="0.9"></circle><circle cx="93" cy="90" r="2" fill="#ffffff" opacity="0.9"></circle><circle cx="93" cy="95" r="2" fill="#ffffff" opacity="0.9"></circle><circle cx="93" cy="100" r="2" fill="#ffffff" opacity="0.9"></circle><circle cx="93" cy="105" r="2" fill="#ffffff" opacity="0.9"></circle><circle cx="93" cy="110" r="2" fill="#ffffff" opacity="0.9"></circle><circle cx="93" cy="115" r="2" fill="#ffffff" opacity="0.9"></circle><circle cx="98" cy="85" r="2" fill="#ffffff" opacity="0.9"></circle><circle cx="103" cy="85" r="2" fill="#ffffff" opacity="0.9"></circle><circle cx="108" cy="90" r="2" fill="#ffffff" opacity="0.9"></circle><circle cx="108" cy="95" r="2" fill="#ffffff" opacity="0.9"></circle><circle cx="103" cy="100" r="2" fill="#ffffff" opacity="0.9"></circle><circle cx="98" cy="100" r="2" fill="#ffffff" opacity="0.9"></circle><ellipse cx="100" cy="100" rx="67" ry="27" fill="none" stroke="#E4C04A" stroke-width="1" opacity="0.7"></ellipse><ellipse cx="100" cy="100" rx="27" ry="67" fill="none" stroke="#E4C04A" stroke-width="1" opacity="0.7"></ellipse><ellipse cx="100" cy="100" rx="67" ry="35" fill="none" stroke="#E4C04A" stroke-width="1" opacity="0.7" transform="rotate(30 100 100)"></ellipse><ellipse cx="100" cy="100" rx="67" ry="35" fill="none" stroke="#E4C04A" stroke-width="1" opacity="0.7" transform="rotate(60 100 100)"></ellipse><ellipse cx="100" cy="100" rx="67" ry="35" fill="none" stroke="#E4C04A" stroke-width="1" opacity="0.7" transform="rotate(120 100 100)"></ellipse><ellipse cx="100" cy="100" rx="67" ry="35" fill="none" stroke="#E4C04A" stroke-width="1" opacity="0.7" transform="rotate(150 100 100)"></ellipse><circle cx="100" cy="100" r="67" fill="none" stroke="#E4C04A" stroke-width="1.5" opacity="0.9"></circle><g transform="translate(100, 100)"><circle cx="67" cy="0" r="2.5" fill="#2563EB" opacity="0.9"><animateMotion dur="8s" repeatCount="indefinite" path="M 67,0 A 67,27 0 1,1 -67,0 A 67,27 0 1,1 67,0"></animateMotion></circle><circle cx="0" cy="-67" r="2.5" fill="#2563EB" opacity="0.9"><animateMotion dur="8s" repeatCount="indefinite" path="M 0,-67 A 27,67 0 1,1 0,67 A 27,67 0 1,1 0,-67"></animateMotion></circle></g></svg>