<?xml version="1.0" encoding="UTF-8"?>
<svg width="1024" height="1024" viewBox="0 0 100 100" xmlns="http://www.w3.org/2000/svg" style="opacity:1;display:block;overflow:visible" role="img" aria-label="A top-down grid of file squares spelling P"><defs><clipPath id="panel-«R0»"><rect x="0" y="0" width="100" height="100" rx="0"></rect></clipPath></defs><g clip-path="url(#panel-«R0»)"><rect x="0" y="0" width="100" height="100" fill="#0d274d" rx="0"></rect><rect x="24.26857142857143" y="13.411428571428573" width="8.034285714285714" height="8.034285714285714" rx="0" fill="#d0e5ea24" stroke="#d0e5ea14" stroke-width="0.4"></rect><rect x="35.12571428571429" y="13.411428571428573" width="8.034285714285714" height="8.034285714285714" rx="0" fill="#d0e5ea14" stroke="#d0e5ea14" stroke-width="0.4"></rect><rect x="45.98285714285714" y="13.411428571428573" width="8.034285714285714" height="8.034285714285714" rx="0" fill="#ff6b3552" stroke="#d0e5ea14" stroke-width="0.4"></rect><rect x="56.84" y="13.411428571428573" width="8.034285714285714" height="8.034285714285714" rx="0" fill="#d0e5ea24" stroke="#d0e5ea14" stroke-width="0.4"></rect><rect x="67.69714285714286" y="13.411428571428573" width="8.034285714285714" height="8.034285714285714" rx="0" fill="#ff6b352e" stroke="#d0e5ea14" stroke-width="0.4"></rect><rect x="78.55428571428571" y="13.411428571428573" width="8.034285714285714" height="8.034285714285714" rx="0" fill="#d0e5ea14" stroke="#d0e5ea14" stroke-width="0.4"></rect><rect x="13.411428571428573" y="24.26857142857143" width="8.034285714285714" height="8.034285714285714" rx="0" fill="#ff6b3552" stroke="#d0e5ea14" stroke-width="0.4"></rect><rect x="24.26857142857143" y="24.26857142857143" width="8.034285714285714" height="8.034285714285714" rx="0" fill="#d0e5ea14" stroke="#d0e5ea14" stroke-width="0.4"></rect><rect x="35.12571428571429" y="24.26857142857143" width="8.034285714285714" height="8.034285714285714" rx="0" fill="#e87045" stroke="#ff6b358c" stroke-width="0.6"></rect><rect x="45.98285714285714" y="24.26857142857143" width="8.034285714285714" height="8.034285714285714" rx="0" fill="#ea764c" stroke="#ff6b358c" stroke-width="0.6"></rect><rect x="56.84" y="24.26857142857143" width="8.034285714285714" height="8.034285714285714" rx="0" fill="#ed7c53" stroke="#ff6b358c" stroke-width="0.6"></rect><rect x="67.69714285714286" y="24.26857142857143" width="8.034285714285714" height="8.034285714285714" rx="0" fill="#ff6b3552" stroke="#d0e5ea14" stroke-width="0.4"></rect><rect x="78.55428571428571" y="24.26857142857143" width="8.034285714285714" height="8.034285714285714" rx="0" fill="#d0e5ea24" stroke="#d0e5ea14" stroke-width="0.4"></rect><rect x="24.26857142857143" y="35.12571428571429" width="8.034285714285714" height="8.034285714285714" rx="0" fill="#d0e5ea24" stroke="#d0e5ea14" stroke-width="0.4"></rect><rect x="35.12571428571429" y="35.12571428571429" width="8.034285714285714" height="8.034285714285714" rx="0" fill="#ea764c" stroke="#ff6b358c" stroke-width="0.6"></rect><rect x="56.84" y="35.12571428571429" width="8.034285714285714" height="8.034285714285714" rx="0" fill="#f0825b" stroke="#ff6b358c" stroke-width="0.6"></rect><rect x="67.69714285714286" y="35.12571428571429" width="8.034285714285714" height="8.034285714285714" rx="0" fill="#ff6b3552" stroke="#d0e5ea14" stroke-width="0.4"></rect><rect x="78.55428571428571" y="35.12571428571429" width="8.034285714285714" height="8.034285714285714" rx="0" fill="#ff6b352e" stroke="#d0e5ea14" stroke-width="0.4"></rect><rect x="13.411428571428573" y="45.98285714285714" width="8.034285714285714" height="8.034285714285714" rx="0" fill="#d0e5ea24" stroke="#d0e5ea14" stroke-width="0.4"></rect><rect x="24.26857142857143" y="45.98285714285714" width="8.034285714285714" height="8.034285714285714" rx="0" fill="#d0e5ea14" stroke="#d0e5ea14" stroke-width="0.4"></rect><rect x="35.12571428571429" y="45.98285714285714" width="8.034285714285714" height="8.034285714285714" rx="0" fill="#ed7c53" stroke="#ff6b358c" stroke-width="0.6"></rect><rect x="45.98285714285714" y="45.98285714285714" width="8.034285714285714" height="8.034285714285714" rx="0" fill="#f0825b" stroke="#ff6b358c" stroke-width="0.6"></rect><rect x="56.84" y="45.98285714285714" width="8.034285714285714" height="8.034285714285714" rx="0" fill="#f28862" stroke="#ff6b358c" stroke-width="0.6"></rect><rect x="67.69714285714286" y="45.98285714285714" width="8.034285714285714" height="8.034285714285714" rx="0" fill="#ff6b352e" stroke="#d0e5ea14" stroke-width="0.4"></rect><rect x="78.55428571428571" y="45.98285714285714" width="8.034285714285714" height="8.034285714285714" rx="0" fill="#ff6b3552" stroke="#d0e5ea14" stroke-width="0.4"></rect><rect x="24.26857142857143" y="56.84" width="8.034285714285714" height="8.034285714285714" rx="0" fill="#ff6b352e" stroke="#d0e5ea14" stroke-width="0.4"></rect><rect x="35.12571428571429" y="56.84" width="8.034285714285714" height="8.034285714285714" rx="0" fill="#f0825b" stroke="#ff6b358c" stroke-width="0.6"></rect><rect x="45.98285714285714" y="56.84" width="8.034285714285714" height="8.034285714285714" rx="0" fill="#d0e5ea38" stroke="#d0e5ea14" stroke-width="0.4"></rect><rect x="56.84" y="56.84" width="8.034285714285714" height="8.034285714285714" rx="0" fill="#d0e5ea38" stroke="#d0e5ea14" stroke-width="0.4"></rect><rect x="78.55428571428571" y="56.84" width="8.034285714285714" height="8.034285714285714" rx="0" fill="#d0e5ea38" stroke="#d0e5ea14" stroke-width="0.4"></rect><rect x="13.411428571428573" y="67.69714285714286" width="8.034285714285714" height="8.034285714285714" rx="0" fill="#d0e5ea38" stroke="#d0e5ea14" stroke-width="0.4"></rect><rect x="24.26857142857143" y="67.69714285714286" width="8.034285714285714" height="8.034285714285714" rx="0" fill="#d0e5ea38" stroke="#d0e5ea14" stroke-width="0.4"></rect><rect x="35.12571428571429" y="67.69714285714286" width="8.034285714285714" height="8.034285714285714" rx="0" fill="#f28862" stroke="#ff6b358c" stroke-width="0.6"></rect><rect x="45.98285714285714" y="67.69714285714286" width="8.034285714285714" height="8.034285714285714" rx="0" fill="#ff6b352e" stroke="#d0e5ea14" stroke-width="0.4"></rect><rect x="56.84" y="67.69714285714286" width="8.034285714285714" height="8.034285714285714" rx="0" fill="#ff6b3552" stroke="#d0e5ea14" stroke-width="0.4"></rect><rect x="67.69714285714286" y="67.69714285714286" width="8.034285714285714" height="8.034285714285714" rx="0" fill="#d0e5ea14" stroke="#d0e5ea14" stroke-width="0.4"></rect><rect x="78.55428571428571" y="67.69714285714286" width="8.034285714285714" height="8.034285714285714" rx="0" fill="#d0e5ea38" stroke="#d0e5ea14" stroke-width="0.4"></rect><rect x="13.411428571428573" y="78.55428571428571" width="8.034285714285714" height="8.034285714285714" rx="0" fill="#d0e5ea38" stroke="#d0e5ea14" stroke-width="0.4"></rect><rect x="24.26857142857143" y="78.55428571428571" width="8.034285714285714" height="8.034285714285714" rx="0" fill="#d0e5ea24" stroke="#d0e5ea14" stroke-width="0.4"></rect><rect x="35.12571428571429" y="78.55428571428571" width="8.034285714285714" height="8.034285714285714" rx="0" fill="#d0e5ea14" stroke="#d0e5ea14" stroke-width="0.4"></rect><rect x="45.98285714285714" y="78.55428571428571" width="8.034285714285714" height="8.034285714285714" rx="0" fill="#ff6b3552" stroke="#d0e5ea14" stroke-width="0.4"></rect><rect x="67.69714285714286" y="78.55428571428571" width="8.034285714285714" height="8.034285714285714" rx="0" fill="#d0e5ea38" stroke="#d0e5ea14" stroke-width="0.4"></rect><rect x="78.55428571428571" y="78.55428571428571" width="8.034285714285714" height="8.034285714285714" rx="0" fill="#ff6b352e" stroke="#d0e5ea14" stroke-width="0.4"></rect></g><rect x="0.375" y="0.375" width="99.25" height="99.25" rx="0" fill="none" stroke="#d0e5ea24" stroke-width="0.75"></rect></svg>