<?xml version="1.0" encoding="UTF-8"?>
<svg width="2048" height="2048" viewBox="30 30 140 140" xmlns="http://www.w3.org/2000/svg" style="opacity:1"><circle cx="100" cy="100" r="67" fill="rgba(26,26,26,1)"/><defs><radialGradient id="sphereGlow" cx="50%" cy="50%" r="50%"><stop offset="0%" style="stop-color:#00ffff;stop-opacity:0.3"></stop><stop offset="100%" style="stop-color:#00ffff;stop-opacity:0"></stop></radialGradient><radialGradient id="centerPulse" cx="50%" cy="50%" r="50%"><stop offset="0%" style="stop-color:#00ffff;stop-opacity:0.8"><animate attributeName="stop-opacity" values="0.8;0.3;0.8" dur="2s" repeatCount="indefinite"></animate></stop><stop offset="100%" style="stop-color:#00ffff;stop-opacity:0"></stop></radialGradient></defs><circle cx="100" cy="100" r="80" fill="url(#sphereGlow)" opacity="0.5"></circle><circle r="2.5" fill="#00ffff" cx="167" cy="100" opacity="0"><animateMotion dur="8s" repeatCount="indefinite" begin="1s" path="M 0,0 A 67,27 0 1,0 -134,0 A 67,27 0 1,0 0,0"></animateMotion><animate attributeName="opacity" values="0;1;0.5;0;0" keyTimes="0;0.2;0.4;0.5;1" dur="8s" begin="1s" repeatCount="indefinite"></animate></circle><circle r="2.5" fill="#00ffff" cx="167" cy="100" opacity="0"><animateMotion dur="8s" repeatCount="indefinite" begin="2s" path="M 0,0 A 67,40 0 1,0 -134,0 A 67,40 0 1,0 0,0"></animateMotion><animate attributeName="opacity" values="0;1;0.5;0;0" keyTimes="0;0.2;0.4;0.5;1" dur="8s" begin="2s" repeatCount="indefinite"></animate></circle><circle r="2.5" fill="#00ffff" cx="167" cy="100" opacity="0"><animateMotion dur="8s" repeatCount="indefinite" begin="3s" path="M 0,0 A 67,53 0 1,0 -134,0 A 67,53 0 1,0 0,0"></animateMotion><animate attributeName="opacity" values="0;1;0.5;0;0" keyTimes="0;0.2;0.4;0.5;1" dur="8s" begin="3s" repeatCount="indefinite"></animate></circle><circle r="2.5" fill="#00ffff" cx="100" cy="167" opacity="0"><animateMotion dur="8s" repeatCount="indefinite" begin="1.5s" path="M 0,0 A 27,67 0 1,0 0,-134 A 27,67 0 1,0 0,0"></animateMotion><animate attributeName="opacity" values="0;1;0.5;0;0" keyTimes="0;0.2;0.4;0.5;1" dur="8s" begin="1.5s" repeatCount="indefinite"></animate></circle><circle r="2.5" fill="#00ffff" cx="100" cy="167" opacity="0"><animateMotion dur="8s" repeatCount="indefinite" begin="2.5s" path="M 0,0 A 40,67 0 1,0 0,-134 A 40,67 0 1,0 0,0"></animateMotion><animate attributeName="opacity" values="0;1;0.5;0;0" keyTimes="0;0.2;0.4;0.5;1" dur="8s" begin="2.5s" repeatCount="indefinite"></animate></circle><circle r="2.5" fill="#00ffff" cx="100" cy="167" opacity="0"><animateMotion dur="8s" repeatCount="indefinite" begin="3.5s" path="M 0,0 A 53,67 0 1,0 0,-134 A 53,67 0 1,0 0,0"></animateMotion><animate attributeName="opacity" values="0;1;0.5;0;0" keyTimes="0;0.2;0.4;0.5;1" dur="8s" begin="3.5s" repeatCount="indefinite"></animate></circle><circle cx="93" cy="85" r="2" fill="#00ffff" opacity="0.9"></circle><circle cx="93" cy="90" r="2" fill="#00ffff" opacity="0.9"></circle><circle cx="93" cy="95" r="2" fill="#00ffff" opacity="0.9"></circle><circle cx="93" cy="100" r="2" fill="#00ffff" opacity="0.9"></circle><circle cx="93" cy="105" r="2" fill="#00ffff" opacity="0.9"></circle><circle cx="93" cy="110" r="2" fill="#00ffff" opacity="0.9"></circle><circle cx="93" cy="115" r="2" fill="#00ffff" opacity="0.9"></circle><circle cx="98" cy="85" r="2" fill="#00ffff" opacity="0.9"></circle><circle cx="103" cy="85" r="2" fill="#00ffff" opacity="0.9"></circle><circle cx="108" cy="90" r="2" fill="#00ffff" opacity="0.9"></circle><circle cx="108" cy="95" r="2" fill="#00ffff" opacity="0.9"></circle><circle cx="103" cy="100" r="2" fill="#00ffff" opacity="0.9"></circle><circle cx="98" cy="100" r="2" fill="#00ffff" opacity="0.9"></circle><circle cx="100" cy="100" r="67" fill="none" stroke="#00ffff" stroke-width="1.5" opacity="0.9"></circle><path d="M 33,100 A 67,13 0 0,1 73,88.1" fill="none" stroke="#00ffff" stroke-width="1" opacity="0.7"></path><path d="M 127,88.1 A 67,13 0 0,1 167,100" fill="none" stroke="#00ffff" stroke-width="1" opacity="0.7"></path><path d="M 33,100 A 67,13 0 0,0 73,111.9" fill="none" stroke="#00ffff" stroke-width="1" opacity="0.7"></path><path d="M 127,111.9 A 67,13 0 0,0 167,100" fill="none" stroke="#00ffff" stroke-width="1" opacity="0.7"></path><ellipse cx="100" cy="100" rx="67" ry="27" fill="none" stroke="#00ffff" stroke-width="1" opacity="0.7"></ellipse><ellipse cx="100" cy="100" rx="67" ry="40" fill="none" stroke="#00ffff" stroke-width="1" opacity="0.7"></ellipse><ellipse cx="100" cy="100" rx="67" ry="53" fill="none" stroke="#00ffff" stroke-width="1" opacity="0.7"></ellipse><path d="M 100,33 A 13,67 0 0,0 87,73" fill="none" stroke="#00ffff" stroke-width="1" opacity="0.7"></path><path d="M 113,73 A 13,67 0 0,0 100,33" fill="none" stroke="#00ffff" stroke-width="1" opacity="0.7"></path><path d="M 100,167 A 13,67 0 0,1 87,127" fill="none" stroke="#00ffff" stroke-width="1" opacity="0.7"></path><path d="M 113,127 A 13,67 0 0,1 100,167" fill="none" stroke="#00ffff" stroke-width="1" opacity="0.7"></path><ellipse cx="100" cy="100" rx="27" ry="67" fill="none" stroke="#00ffff" stroke-width="1" opacity="0.7"></ellipse><ellipse cx="100" cy="100" rx="40" ry="67" fill="none" stroke="#00ffff" stroke-width="1" opacity="0.7"></ellipse><ellipse cx="100" cy="100" rx="53" ry="67" fill="none" stroke="#00ffff" stroke-width="1" opacity="0.7"></ellipse><ellipse cx="100" cy="100" rx="67" ry="33" fill="none" stroke="#00ffff" stroke-width="1" opacity="0.6" transform="rotate(30 100 100)"></ellipse><ellipse cx="100" cy="100" rx="67" ry="33" fill="none" stroke="#00ffff" stroke-width="1" opacity="0.6" transform="rotate(60 100 100)"></ellipse><ellipse cx="100" cy="100" rx="67" ry="33" fill="none" stroke="#00ffff" stroke-width="1" opacity="0.6" transform="rotate(120 100 100)"></ellipse><ellipse cx="100" cy="100" rx="67" ry="33" fill="none" stroke="#00ffff" stroke-width="1" opacity="0.6" transform="rotate(150 100 100)"></ellipse><line x1="33" y1="100" x2="73" y2="100" stroke="#00ffff" stroke-width="1.5" opacity="0.8"></line><line x1="127" y1="100" x2="167" y2="100" stroke="#00ffff" stroke-width="1.5" opacity="0.8"></line><line x1="100" y1="33" x2="100" y2="73" stroke="#00ffff" stroke-width="1.5" opacity="0.8"></line><line x1="100" y1="127" x2="100" y2="167" stroke="#00ffff" stroke-width="1.5" opacity="0.8"></line><circle r="2.5" fill="#00ffff" cx="167" cy="100" opacity="0"><animateMotion dur="8s" repeatCount="indefinite" begin="1s" path="M 0,0 A 67,27 0 1,0 -134,0 A 67,27 0 1,0 0,0"></animateMotion><animate attributeName="opacity" values="0;0;0.5;1;1;0.5;0" keyTimes="0;0.5;0.6;0.75;0.9;0.95;1" dur="8s" begin="1s" repeatCount="indefinite"></animate></circle><circle r="2.5" fill="#00ffff" cx="167" cy="100" opacity="0"><animateMotion dur="8s" repeatCount="indefinite" begin="2s" path="M 0,0 A 67,40 0 1,0 -134,0 A 67,40 0 1,0 0,0"></animateMotion><animate attributeName="opacity" values="0;0;0.5;1;1;0.5;0" keyTimes="0;0.5;0.6;0.75;0.9;0.95;1" dur="8s" begin="2s" repeatCount="indefinite"></animate></circle><circle r="2.5" fill="#00ffff" cx="167" cy="100" opacity="0"><animateMotion dur="8s" repeatCount="indefinite" begin="3s" path="M 0,0 A 67,53 0 1,0 -134,0 A 67,53 0 1,0 0,0"></animateMotion><animate attributeName="opacity" values="0;0;0.5;1;1;0.5;0" keyTimes="0;0.5;0.6;0.75;0.9;0.95;1" dur="8s" begin="3s" repeatCount="indefinite"></animate></circle><circle r="2.5" fill="#00ffff" cx="100" cy="167" opacity="0"><animateMotion dur="8s" repeatCount="indefinite" begin="1.5s" path="M 0,0 A 27,67 0 1,0 0,-134 A 27,67 0 1,0 0,0"></animateMotion><animate attributeName="opacity" values="0;0;0.5;1;1;0.5;0" keyTimes="0;0.5;0.6;0.75;0.9;0.95;1" dur="8s" begin="1.5s" repeatCount="indefinite"></animate></circle><circle r="2.5" fill="#00ffff" cx="100" cy="167" opacity="0"><animateMotion dur="8s" repeatCount="indefinite" begin="2.5s" path="M 0,0 A 40,67 0 1,0 0,-134 A 40,67 0 1,0 0,0"></animateMotion><animate attributeName="opacity" values="0;0;0.5;1;1;0.5;0" keyTimes="0;0.5;0.6;0.75;0.9;0.95;1" dur="8s" begin="2.5s" repeatCount="indefinite"></animate></circle><circle r="2.5" fill="#00ffff" cx="100" cy="167" opacity="0"><animateMotion dur="8s" repeatCount="indefinite" begin="3.5s" path="M 0,0 A 53,67 0 1,0 0,-134 A 53,67 0 1,0 0,0"></animateMotion><animate attributeName="opacity" values="0;0;0.5;1;1;0.5;0" keyTimes="0;0.5;0.6;0.75;0.9;0.95;1" dur="8s" begin="3.5s" repeatCount="indefinite"></animate></circle></svg>